<?xml version="1.0" standalone="no"?>
<!DOCTYPE svg PUBLIC "-//W3C//DTD SVG 20010904//EN"
 "http://www.w3.org/TR/2001/REC-SVG-20010904/DTD/svg10.dtd">
<svg version="1.0" xmlns="http://www.w3.org/2000/svg"
 width="700.000000pt" height="700.000000pt" viewBox="0 0 700.000000 700.000000"
 preserveAspectRatio="xMidYMid meet">
<metadata>
Created by potrace 1.14, written by Peter Selinger 2001-2017
</metadata>
<g transform="translate(0.000000,700.000000) scale(0.100000,-0.100000)"
fill="#000000" stroke="none">
<path d="M3108 6986 c-67 -19 -132 -53 -186 -95 -26 -21 -125 -93 -221 -160
-140 -99 -386 -279 -436 -319 -5 -4 -28 -21 -50 -37 -211 -157 -849 -667 -895
-715 -3 -3 -34 -30 -70 -60 -36 -30 -70 -59 -76 -65 -6 -5 -39 -35 -74 -65
-125 -107 -366 -324 -474 -425 -23 -22 -80 -75 -127 -119 -46 -43 -153 -146
-238 -228 -269 -262 -259 -233 -260 -805 0 -238 5 -449 10 -474 15 -70 66
-164 117 -216 26 -26 100 -88 166 -138 113 -86 174 -133 296 -228 152 -119
680 -543 790 -635 69 -57 145 -120 170 -140 139 -114 536 -451 620 -527 25
-22 72 -62 105 -90 32 -27 63 -55 69 -60 6 -6 67 -60 136 -120 69 -60 143
-126 165 -146 22 -20 107 -97 190 -170 82 -74 157 -141 165 -149 9 -8 65 -60
125 -115 60 -55 141 -129 179 -165 38 -36 82 -76 97 -90 15 -14 82 -77 149
-140 215 -204 231 -217 278 -243 178 -95 389 -38 522 141 14 18 32 41 40 51
14 18 51 65 384 486 230 291 259 328 291 369 17 21 48 62 71 90 37 46 138 175
333 421 l71 90 0 372 c0 204 3 374 8 376 4 3 6 -161 5 -364 -1 -203 0 -369 2
-369 3 0 78 94 181 225 12 17 80 102 150 190 69 88 138 175 153 194 14 19 55
71 91 116 36 45 79 99 95 120 17 21 57 72 91 114 33 42 84 107 114 145 29 38
59 76 66 85 7 9 40 50 72 91 32 41 119 152 194 245 74 94 143 184 153 200 11
17 23 32 27 35 3 3 18 39 32 80 25 74 25 75 23 422 -2 191 -5 350 -9 353 -3 4
-1 23 4 43 20 72 -1 203 -47 293 -46 90 -81 117 -607 466 -284 188 -520 343
-523 343 -3 0 -11 5 -18 10 -11 10 -90 61 -222 145 -27 17 -81 52 -120 77 -38
24 -126 80 -195 123 -69 43 -162 102 -207 132 -46 29 -85 53 -87 53 -3 0 -39
23 -80 50 -42 28 -78 50 -80 50 -3 0 -31 17 -63 38 -32 21 -76 49 -98 62 l-40
24 38 -40 c55 -56 145 -254 116 -254 -5 0 -9 8 -9 19 0 21 -20 74 -52 138 -43
87 -103 136 -363 299 -231 145 -443 274 -540 329 -67 37 -107 61 -163 94 -29
17 -55 31 -57 31 -2 0 -41 22 -86 50 -45 27 -105 58 -134 69 -70 26 -186 34
-247 17z m1662 -1136 c0 -149 -52 -280 -148 -371 l-57 -54 51 55 c67 72 98
127 124 223 15 56 21 99 18 153 -2 41 0 74 5 74 4 0 7 -36 7 -80z m-230 -443
c0 -1 -26 -27 -57 -57 l-58 -55 55 58 c50 53 60 62 60 54z m-120 -110 c0 -1
-26 -27 -57 -57 l-58 -55 55 58 c50 53 60 62 60 54z m-139 -140 c-10 -9 -11
-8 -5 6 3 10 9 15 12 12 3 -3 0 -11 -7 -18z m-91 -82 c-24 -25 -46 -45 -49
-45 -3 0 15 20 39 45 24 25 46 45 49 45 3 0 -15 -20 -39 -45z m-161 -157 c-39
-52 -55 -69 -44 -48 13 23 66 90 72 90 2 0 -10 -19 -28 -42z m-56 -90 c-23
-29 -60 -156 -65 -225 -1 -18 -6 -33 -11 -33 -5 0 -6 8 -3 18 2 9 7 38 11 64
8 68 60 206 73 194 3 -3 0 -11 -5 -18z m-65 -302 c0 -52 26 -134 62 -196 48
-82 114 -151 265 -275 66 -55 125 -104 131 -110 12 -11 32 -28 154 -135 47
-41 108 -95 135 -121 28 -25 84 -77 125 -115 215 -199 393 -369 564 -539 94
-93 129 -135 154 -186 37 -74 60 -183 53 -256 -5 -41 -6 -34 -11 42 -12 169
-45 232 -209 395 -169 167 -486 468 -670 636 -36 33 -72 66 -81 74 -9 8 -34
30 -55 49 -22 18 -60 52 -85 75 -25 23 -74 66 -110 96 -36 30 -67 57 -70 60
-3 3 -39 33 -81 67 -145 118 -228 222 -261 326 -20 66 -31 150 -18 142 4 -2 8
-15 8 -29z m2988 -384 c-17 -16 -18 -16 -5 5 7 12 15 20 18 17 3 -2 -3 -12
-13 -22z m-53 -66 c-10 -13 -20 -22 -22 -20 -4 4 29 44 36 44 2 0 -4 -11 -14
-24z m-43 -60 c0 -2 -8 -10 -17 -17 -16 -13 -17 -12 -4 4 13 16 21 21 21 13z
m-6675 -66 c10 -11 16 -20 13 -20 -3 0 -13 9 -23 20 -10 11 -16 20 -13 20 3 0
13 -9 23 -20z m96 -87 c13 -16 12 -17 -3 -4 -10 7 -18 15 -18 17 0 8 8 3 21
-13z m6459 3 c0 -2 -8 -10 -17 -17 -16 -13 -17 -12 -4 4 13 16 21 21 21 13z
m-6349 -83 c13 -16 12 -17 -3 -4 -10 7 -18 15 -18 17 0 8 8 3 21 -13z m6257
-33 c-7 -10 -14 -17 -17 -15 -4 4 18 35 25 35 2 0 -1 -9 -8 -20z m-6207 -7
c13 -16 12 -17 -3 -4 -10 7 -18 15 -18 17 0 8 8 3 21 -13z m6149 -67 c0 -2 -8
-10 -17 -17 -16 -13 -17 -12 -4 4 13 16 21 21 21 13z m-5915 -116 c10 -11 16
-20 13 -20 -3 0 -13 9 -23 20 -10 11 -16 20 -13 20 3 0 13 -9 23 -20z m5765
-73 c0 -2 -10 -12 -22 -23 l-23 -19 19 23 c18 21 26 27 26 19z m-5519 -124
c13 -16 12 -17 -3 -4 -10 7 -18 15 -18 17 0 8 8 3 21 -13z m5399 -27 c0 -2 -8
-10 -17 -17 -16 -13 -17 -12 -4 4 13 16 21 21 21 13z m-30 -40 c0 -2 -8 -10
-17 -17 -16 -13 -17 -12 -4 4 13 16 21 21 21 13z m-70 -90 c0 -2 -8 -10 -17
-17 -16 -13 -17 -12 -4 4 13 16 21 21 21 13z m-50 -60 c0 -2 -8 -10 -17 -17
-16 -13 -17 -12 -4 4 13 16 21 21 21 13z m-90 -119 c0 -2 -10 -12 -22 -23
l-23 -19 19 23 c18 21 26 27 26 19z m-60 -71 c0 -2 -8 -10 -17 -17 -16 -13
-17 -12 -4 4 13 16 21 21 21 13z m-30 -40 c0 -2 -8 -10 -17 -17 -16 -13 -17
-12 -4 4 13 16 21 21 21 13z m-190 -240 c0 -2 -8 -10 -17 -17 -16 -13 -17 -12
-4 4 13 16 21 21 21 13z m-140 -180 c0 -2 -8 -10 -17 -17 -16 -13 -17 -12 -4
4 13 16 21 21 21 13z"/>
</g>
</svg>
