<svg xmlns="http://www.w3.org/2000/svg" width="30" height="33" viewBox="0 0 30 33"><defs><style>.a{fill:none;}.b{fill:#fbbb00;}.c{fill:#518ef8;}.d{fill:#28b446;}.e{fill:#f14336;}</style></defs><rect class="a" width="30" height="33"/><g transform="translate(7 8.351)"><path class="b" d="M3.358,143.333,2.831,145.3.9,145.343a7.589,7.589,0,0,1-.056-7.075h0l1.716.315.752,1.706a4.521,4.521,0,0,0,.042,3.044Z" transform="translate(0 -134.176)"/><path class="c" d="M268.905,208.176a7.573,7.573,0,0,1-2.7,7.324h0l-2.162-.11-.306-1.91a4.515,4.515,0,0,0,1.943-2.306h-4.051v-3h7.277Z" transform="translate(-253.885 -202.015)"/><path class="d" d="M41.925,313.736h0a7.579,7.579,0,0,1-11.416-2.318l2.455-2.01a4.506,4.506,0,0,0,6.493,2.307Z" transform="translate(-29.606 -300.252)"/><path class="e" d="M40.189,1.744,37.735,3.754a4.505,4.505,0,0,0-6.642,2.359L28.624,4.092h0A7.578,7.578,0,0,1,40.189,1.744Z" transform="translate(-27.777)"/></g></svg>