<svg xmlns="http://www.w3.org/2000/svg" width="24" height="24" viewBox="0 0 24 24"><defs><style>.a{fill:none;}.b{fill:#3a3668;}</style></defs><rect class="a" width="24" height="24"/><path class="b" d="M-919.5-63a5.5,5.5,0,0,1-5.5-5.5,5.492,5.492,0,0,1,4.261-5.351A6.989,6.989,0,0,1-914-79a7,7,0,0,1,7,7,4.507,4.507,0,0,1,4,4.48A4.518,4.518,0,0,1-907.5-63Zm-3.5-5.5a3.5,3.5,0,0,0,3.5,3.5h12a2.5,2.5,0,0,0,2.5-2.5,2.5,2.5,0,0,0-2.5-2.5H-909v-2a5,5,0,0,0-5-5,5,5,0,0,0-5,5h-.5A3.5,3.5,0,0,0-923-68.5Zm7,.333v-4.172A.781.781,0,0,1-914.8-73l3.243,2.086a.782.782,0,0,1,0,1.313l-3.243,2.085a.762.762,0,0,1-.419.126A.784.784,0,0,1-916-68.167Z" transform="translate(926 83)"/></svg>