<svg xmlns="http://www.w3.org/2000/svg" width="24" height="24" viewBox="0 0 24 24"><defs><style>.a{fill:none;}.b{fill:white;}</style></defs><path class="a" d="M0,0H24V24H0Z"/><path class="b" d="M-923,7a2.006,2.006,0,0,1-2-2V-9a2.006,2.006,0,0,1,2-2h8a1,1,0,0,1,1,1,1,1,0,0,1-1,1h-8V5h14V-3a1,1,0,0,1,1-1,1,1,0,0,1,1,1V5a2.006,2.006,0,0,1-2,2Zm10-5V0a1,1,0,0,1,1-1,1,1,0,0,1,1,1V2a1,1,0,0,1-1,1A1,1,0,0,1-913,2Zm-4,0V-6a1,1,0,0,1,1-1,1,1,0,0,1,1,1V2a1,1,0,0,1-1,1A1,1,0,0,1-917,2Zm-4,0V-3a1,1,0,0,1,1-1,1,1,0,0,1,1,1V2a1,1,0,0,1-1,1A1,1,0,0,1-921,2Zm10-8V-7h-1a1,1,0,0,1-1-1,1,1,0,0,1,1-1h1v-1a1,1,0,0,1,1-1,1,1,0,0,1,1,1v1h1a1,1,0,0,1,1,1,1,1,0,0,1-1,1h-1v1a1,1,0,0,1-1,1A1,1,0,0,1-911-6Z" transform="translate(928 14)"/></svg>
