<svg xmlns="http://www.w3.org/2000/svg" width="24" height="24" viewBox="0 0 24 24"><defs><style>.a{fill:none;}.b{fill:#3a3668;}</style></defs><path class="a" d="M0,0H24V24H0Z"/><path class="b" d="M12,8v4a1.033,1.033,0,0,0,.29.71l2.79,2.79a1,1,0,0,0,1.41,0h0a1,1,0,0,0,0-1.41l-2.5-2.5V8a1,1,0,0,0-1-1h0A1,1,0,0,0,12,8Zm1.26-5A9,9,0,0,0,4,12H2.21a.5.5,0,0,0-.35.85l2.79,2.79a.5.5,0,0,0,.71,0l2.8-2.79A.505.505,0,0,0,7.79,12H6a7.01,7.01,0,0,1,7.1-7A7.1,7.1,0,0,1,20,11.9,6.993,6.993,0,0,1,8.77,17.57a.992.992,0,0,0-1.31.09h0a1,1,0,0,0,.09,1.5A9,9,0,0,0,22,11.75,9.108,9.108,0,0,0,13.26,3Z"/></svg>