<svg xmlns="http://www.w3.org/2000/svg" xmlns:xlink="http://www.w3.org/1999/xlink" width="100.001" height="100" viewBox="0 0 100.001 100">
  <defs>
    <linearGradient id="linear-gradient" x1="1.034" y1="0.536" x2="0.07" y2="0.446" gradientUnits="objectBoundingBox">
      <stop offset="0" stop-color="#ee7a53"/>
      <stop offset="1" stop-color="#eebe53"/>
    </linearGradient>
  </defs>
  <g id="icn_spread" transform="translate(-678 -648)">
    <path id="Path_4262" data-name="Path 4262" d="M796.14,862.44c.171.092.351.185.55.273C796.491,862.625,796.306,862.532,796.14,862.44Z" transform="translate(-63.445 -115.161)" fill="#ccc"/>
    <path id="Path_4263" data-name="Path 4263" d="M869.945,738.871h0a6.51,6.51,0,0,1-1.359,3.957L849.27,767.321V756.768l19.312-24.488a6.37,6.37,0,0,0,1.276-2.94Z" transform="translate(-91.945 -43.645)" fill="#d7d6e1"/>
    <path id="Path_4264" data-name="Path 4264" d="M841.159,697.819,820.4,724.15a7.2,7.2,0,0,0-.6-9.375c-7.431-7.2-13.123-12.466-17.5-16.011-1.186-.959-3.655-2.917-3.985-6.018a8.929,8.929,0,0,1,1.939-6.008l8.924-8.312A8.074,8.074,0,0,0,810.6,672.3a7.307,7.307,0,0,0-2.38-4.139c-1.81-1.1-4.663-2.9-4.663-2.9S817,673.58,823.841,677.991q8.05,5.192,15.771,10.413c.183.119.361.238.535.361a.159.159,0,0,1,.054.035c.151.124.3.252.441.391A6.593,6.593,0,0,1,841.159,697.819Z" transform="translate(-64.524 -9.284)" fill="#eceff8"/>
    <path id="Path_4265" data-name="Path 4265" d="M850.716,800.268" transform="translate(-92.755 -81.773)" fill="#ccc"/>
    <path id="Path_4266" data-name="Path 4266" d="M757.172,758.688v10.549L739.84,791.205a5.61,5.61,0,0,1-8.491.633c-8.3-7.922-17.238-16.006-26.826-24.131q-12.329-10.443-24.133-19.4a6.575,6.575,0,0,1-2.376-4.87V732.885a6.576,6.576,0,0,0,2.376,4.87q11.768,8.968,24.133,19.4c9.588,8.119,18.526,16.2,26.826,24.126a5.61,5.61,0,0,0,8.491-.633l5.9-7.482,7.8-9.878Z" transform="translate(-0.007 -45.489)" fill="#ee7c53"/>
    <path id="Path_4267" data-name="Path 4267" d="M755.112,705.594c-7.43-7.215-13.124-12.487-17.494-16.038-1.186-.963-3.655-2.922-3.984-6.028a8.949,8.949,0,0,1,1.937-6.02l8.925-8.328a8.1,8.1,0,0,0,1.419-6.134,7.308,7.308,0,0,0-2.383-4.143c-2.636-1.609-4.766-2.969-6.221-3.913-1.945-1.262-4.495-2.72-9.592-5.637A7.35,7.35,0,0,0,723.64,648a7.149,7.149,0,0,0-4.413,1.982c-6.048,4.19-12.4,8.936-18.939,14.3-7.6,6.238-14.408,12.469-20.472,18.466a6.177,6.177,0,0,0-1.811,4.556,6.586,6.586,0,0,0,2.379,4.88q11.766,8.984,24.133,19.435c9.588,8.137,18.523,16.235,26.825,24.171a5.606,5.606,0,0,0,8.491-.631l15.221-19.341.021.017,2.09-2.681v-2.322A7.036,7.036,0,0,0,755.112,705.594Z" transform="translate(0 0)" fill="url(#linear-gradient)"/>
  </g>
</svg>
