<svg xmlns="http://www.w3.org/2000/svg" width="24" height="24" viewBox="0 0 24 24"><defs><style>.a{fill:none;}.b{fill:#3a3668;}</style></defs><rect class="a" width="24" height="24"/><path class="b" d="M17.33,20.46a9.914,9.914,0,0,1-3.12,1.3A1,1,0,0,1,13,20.78h0a.988.988,0,0,1,.74-.97,7.748,7.748,0,0,0,2.53-1.05.975.975,0,0,1,1.22.16h0A.989.989,0,0,1,17.33,20.46Zm3.44-7.45h0a.993.993,0,0,1,.98,1.21,10.113,10.113,0,0,1-1.3,3.12,1,1,0,0,1-1.55.16h0a1,1,0,0,1-.16-1.22,7.839,7.839,0,0,0,1.05-2.53A1,1,0,0,1,20.77,13.01ZM18.9,6.52h0a1,1,0,0,1,1.55.15,9.957,9.957,0,0,1,1.3,3.11,1,1,0,0,1-.98,1.21h0a.988.988,0,0,1-.97-.74,8.068,8.068,0,0,0-1.05-2.53A.96.96,0,0,1,18.9,6.52ZM13,3.24h0a.993.993,0,0,1,1.21-.98,9.957,9.957,0,0,1,3.11,1.3,1,1,0,0,1,.16,1.55h0a.972.972,0,0,1-1.21.15,7.659,7.659,0,0,0-2.53-1.05A.98.98,0,0,1,13,3.24Zm0,8.77v4a1,1,0,0,1-1,1h0a1,1,0,0,1-1-1v-4H9.41A1,1,0,0,1,8.7,10.3l2.59-2.59a1,1,0,0,1,1.41,0l2.59,2.59a1,1,0,0,1-.71,1.71H13ZM11,3.24h0a1,1,0,0,0-1.21-.99,10,10,0,0,0,0,19.51A1,1,0,0,0,11,20.78h0a.986.986,0,0,0-.76-.97,7.995,7.995,0,0,1,0-15.6A.986.986,0,0,0,11,3.24Z"/></svg>