<svg xmlns="http://www.w3.org/2000/svg" width="92" height="90.382" viewBox="0 0 92 90.382"><defs><style>.a{fill:#3428ca;}.b{fill:#eceff8;}.c{fill:none;}.d{fill:#275ed7;}.e{fill:#2319a8;}.f{fill:#1c4ebc;}</style></defs><path class="a" d="M83.8,44.465l10.58-6.484a5.423,5.423,0,0,0-.333-.682,6.305,6.305,0,0,0-1.65-1.9l-8.6-6.519L61.469,11.919,52.745,5.3a6.377,6.377,0,0,0-7.677,0l-8.724,6.614L14.01,28.876,5.412,35.4a6.305,6.305,0,0,0-1.65,1.9,5.252,5.252,0,0,0-.6,1.443L48.1,66.009Z" transform="translate(-2.906 -4.02)"/><path class="b" d="M79.793,25.957V12.172A3.172,3.172,0,0,0,76.621,9H13.172A3.172,3.172,0,0,0,10,12.172V42.4L44.094,63.09l35.7-21.544Z" transform="translate(1.104 -1.101)"/><path class="c" d="M48.1,53.174,3.16,25.91l10.85,6.581L92.558,80.142Z" transform="translate(-2.906 8.812)"/><g transform="translate(45.198 33.961)"><path class="a" d="M31.494,43.1,75.949,70.067Z" transform="translate(-31.494 -15.073)"/><path class="a" d="M54,31.914,64.58,25.43Z" transform="translate(-18.301 -25.43)"/><path class="a" d="M67.193,31.914l-35.7,21.544L75.949,80.424A6.278,6.278,0,0,0,78.3,75.506V27.9a5.972,5.972,0,0,0-.523-2.474Z" transform="translate(-31.494 -25.43)"/></g><path class="d" d="M14.1,32.493,3.254,25.91A5.6,5.6,0,0,0,3,27.623v47.6A6.345,6.345,0,0,0,9.345,81.57h79.31a6.345,6.345,0,0,0,4-1.428L14.1,32.491Z" transform="translate(-3 8.812)"/><path class="c" d="M32.753,43.862,75.211,69.619Z" transform="translate(14.442 19.335)"/><path class="c" d="M51.213,55.06,64.39,63.054Z" transform="translate(25.263 25.9)"/><path class="e" d="M66.214,25.43l-10.58,6.484v30.9a12.65,12.65,0,0,1-4.421,9.612L64.39,80.424a6.278,6.278,0,0,0,2.348-4.917V27.9a5.972,5.972,0,0,0-.523-2.474Z" transform="translate(25.263 8.531)"/><path class="f" d="M71.207,58.137H3a6.345,6.345,0,0,0,6.345,6.345h79.31a6.345,6.345,0,0,0,4-1.428L79.476,55.06A12.631,12.631,0,0,1,71.207,58.137Z" transform="translate(-3 25.9)"/></svg>